# Blender v2.78 (sub 0) OBJ File: 'old road.blend'
# www.blender.org
mtllib old road.mtl
o old_road
v -2.495922 0.079224 4.488934
v -2.495922 0.200336 4.488934
v -2.495922 0.079224 -4.488934
v -2.495922 0.200336 -4.488934
v 2.516006 0.079224 4.488934
v 2.516006 0.200336 4.488934
v 2.516006 0.079224 -4.488934
v 2.516006 0.200336 -4.488934
vt 0.9990 0.0010
vt 0.9010 0.0010
vt 0.9010 0.6657
vt 0.9990 0.6657
vt 0.7990 0.4990
vt 0.7990 0.4177
vt 0.4010 0.4177
vt 0.4010 0.4990
vt 0.8990 0.0010
vt 0.8010 0.0010
vt 0.8010 0.6657
vt 0.8990 0.6657
vt 0.7990 0.4157
vt 0.7990 0.3343
vt 0.4010 0.3343
vt 0.4010 0.4157
vt 0.3990 0.3343
vt 0.0010 0.3343
vt 0.0010 0.9990
vt 0.3990 0.9990
vt 0.7990 0.3323
vt 0.7990 0.0010
vt 0.0010 0.0010
vt 0.0010 0.3323
vn -1.0000 -0.0000 0.0000
vn -0.0000 0.0000 -1.0000
vn 1.0000 -0.0000 0.0000
vn 0.0000 0.0000 1.0000
vn 0.0000 -1.0000 0.0000
vn 0.0000 1.0000 -0.0000
usemtl None
s off
f 1/1/1 2/2/1 4/3/1 3/4/1
f 3/5/2 4/6/2 8/7/2 7/8/2
f 7/9/3 8/10/3 6/11/3 5/12/3
f 5/13/4 6/14/4 2/15/4 1/16/4
f 3/17/5 7/18/5 5/19/5 1/20/5
f 8/21/6 4/22/6 2/23/6 6/24/6
